<?xml version="1.0" encoding="UTF-8"?><svg id="a" xmlns="http://www.w3.org/2000/svg" viewBox="0 0 24 24"><path d="M5.19,7.57v-.1s-.22-.21-.22-.21L.11,12.14c-.07.07-.11.16-.11.26s.04.19.11.26l4.71,4.71.17.14.2-.23v-1.09l-3.8-3.8,3.8-3.82v-1.01Z" fill="#f0f5ff"/><path d="M23.89,12.11l-4.71-4.71-.15-.13-.22.19v1.1l3.8,3.8-3.8,3.82v1.11s.22.21.22.21l4.86-4.88c.07-.07.11-.16.11-.26s-.04-.19-.11-.26Z" fill="#f0f5ff"/><path d="M6.25,18.66v-1.34s0-.04.02-.06l7.38-10s.02-.03.02-.05v-.2s-.02-.05-.05-.05l-5.07-.02s-.04.01-.06.03l-.17.79s-.01.01-.02.01l-1.43.04s-.03,0-.03-.02l-.25-2.42s.02-.05.05-.05h10.39s.05.02.05.05v1.5s0,.05-.02.07l-7.29,9.8s-.02.04-.02.06v.16s.03.07.07.07h5.56s.07-.02.09-.05l.26-.95s.01-.01.02-.01l1.43-.07s.03,0,.03.02l.26,2.68s-.01.03-.03.03H6.27s-.03-.01-.03-.03Z" fill="#f0f5ff"/></svg>